# xmcd CD database file
#
# Track frame offsets:
#	150
#	32213
#	64065
#	120130
#	136988
#	170085
#	211595
#	253405
#
# Disc length: 4019 seconds
#
# Revision: 0
# Processed by: cddbd v1.5.2PL0 Copyright (c) Steve Scherf et al.
# Submitted via: CDex 1.51
#
DISCID=6e0fb108
DTITLE=Earl Fatha Hines - Aalborg, Denmark - April 22, 1965
DYEAR=1965
DGENRE=Jazz
TTITLE0=Monday Date, Blues in thirds, You can depend on me
TTITLE1=Tea for two
TTITLE2=Keepin' out of mischief now, Two sleepy people, Ain't misbehavin', Jitterbug Waltz, Squeez me, Honeysuckle Rose
TTITLE3=Shiny stockings
TTITLE4=Perdido
TTITLE5=Black coffee
TTITLE6=Canadian Sunset, Lullaby of Birdland, Misty, Satin Doll
TTITLE7=Boogie Woogie ob St Louis Blues
EXTD=YEAR: 1965
EXTT0=
EXTT1=
EXTT2=
EXTT3=
EXTT4=
EXTT5=
EXTT6=
EXTT7=
PLAYORDER=
